<svg width="1021" height="1120" viewBox="0 0 1021 1120" fill="none" xmlns="http://www.w3.org/2000/svg">
    <g opacity="0.5" filter="url(#filter0_d_108_1327)">
        <path d="M323.343 36.6942C203.405 137.217 184.819 327.298 103.589 467.527C75.3124 516.322 38.7749 559.992 19.7119 614.123C-24.0536 738.026 36.1802 878.572 116.801 976.981C155.245 1023.93 200.149 1066.94 254.478 1086.72C296.258 1101.94 341.056 1102.57 385.033 1102.97L1155.5 1110.9C1241.52 1111.77 1337.1 1108.62 1398.95 1042.21C1441.57 996.478 1458.89 929.692 1473.58 865.944C1491.64 787.613 1508 702.546 1479.91 627.94C1447.82 542.582 1366.67 494.21 1316.26 420.555C1234.45 301.223 1236.33 120.731 1132.14 25.4664C1083.51 -18.9959 1019.33 -36.4321 956.792 -45.1502C838.892 -61.6089 727.215 -30.5408 611.433 -34.8734C512.464 -38.572 405.447 -32.1259 323.343 36.6942Z" fill="#E7ECFF"/>
        <path d="M323.343 36.6942C203.405 137.217 184.819 327.298 103.589 467.527C75.3124 516.322 38.7749 559.992 19.7119 614.123C-24.0536 738.026 36.1802 878.572 116.801 976.981C155.245 1023.93 200.149 1066.94 254.478 1086.72C296.258 1101.94 341.056 1102.57 385.033 1102.97L1155.5 1110.9C1241.52 1111.77 1337.1 1108.62 1398.95 1042.21C1441.57 996.478 1458.89 929.692 1473.58 865.944C1491.64 787.613 1508 702.546 1479.91 627.94C1447.82 542.582 1366.67 494.21 1316.26 420.555C1234.45 301.223 1236.33 120.731 1132.14 25.4664C1083.51 -18.9959 1019.33 -36.4321 956.792 -45.1502C838.892 -61.6089 727.215 -30.5408 611.433 -34.8734C512.464 -38.572 405.447 -32.1259 323.343 36.6942Z" stroke="black"/>
    </g>
    <path opacity="0.24" d="M564.786 932.613C518.337 937.283 470.463 942.419 429.589 965.264C424.119 968.328 418.564 971.942 415.546 977.458C409.488 988.553 416.363 1003.18 427.032 1009.86C437.701 1016.53 450.865 1017.29 463.42 1017.84C686.987 1027.59 910.889 1023.76 1134.65 1019.96C1199.62 1018.86 1265.63 1017.59 1327.9 998.718C1339.1 995.337 1351.4 990.265 1355.61 979.212C1361.13 964.757 1348.55 948.737 1333.88 944.236C1319.2 939.735 1303.55 943.095 1288.37 945.06C1235.68 951.886 1182.52 941.446 1130.05 933.099C1027.35 916.784 920.783 903.512 816.755 901.039C781.289 900.215 751.001 912.515 716.29 917.376C666.173 924.434 615.176 927.541 564.786 932.613Z" fill="#505F98"/>
    <path d="M382.077 499.326L497.907 263.408L566.893 297.19L451.063 533.108L382.077 499.326Z" fill="white"/>
    <path d="M408.922 492.055L423.036 463.22L469.5 485.903L455.386 514.738L408.922 492.055Z" fill="#505F98"/>
    <path d="M408.922 492.055L423.036 463.22L469.5 485.903L455.386 514.738L408.922 492.055Z" fill="url(#paint0_linear_108_1327)"/>
    <path d="M423.038 463.445L437.151 434.61L483.615 457.293L469.502 486.128L423.038 463.445Z" fill="#505F98"/>
    <path d="M423.038 463.445L437.151 434.61L483.615 457.293L469.502 486.128L423.038 463.445Z" fill="url(#paint1_linear_108_1327)"/>
    <path d="M437.134 434.826L451.248 405.991L497.712 428.674L483.599 457.509L437.134 434.826Z" fill="#505F98"/>
    <path d="M437.134 434.826L451.248 405.991L497.712 428.674L483.599 457.509L437.134 434.826Z" fill="url(#paint2_linear_108_1327)"/>
    <path d="M451.271 406.237L465.384 377.402L511.848 400.085L497.735 428.92L451.271 406.237Z" fill="#505F98"/>
    <path d="M451.271 406.237L465.384 377.402L511.848 400.085L497.735 428.92L451.271 406.237Z" fill="url(#paint3_linear_108_1327)"/>
    <path d="M465.377 377.599L479.49 348.764L525.954 371.447L511.841 400.282L465.377 377.599Z" fill="#505F98"/>
    <path d="M479.492 349.01L493.606 320.175L540.07 342.858L525.956 371.693L479.492 349.01Z" fill="#505F98"/>
    <path d="M493.589 320.391L507.702 291.556L554.166 314.239L540.053 343.074L493.589 320.391Z" fill="#505F98"/>
    <path d="M477.904 352.598L492.018 323.763L538.482 346.446L524.368 375.281L477.904 352.598Z" fill="url(#paint4_linear_108_1327)"/>
    <path d="M492.029 323.97L506.142 295.135L552.607 317.817L538.493 346.652L492.029 323.97Z" fill="url(#paint5_linear_108_1327)"/>
    <rect x="792.545" y="817" width="98.0679" height="82" fill="#505F98"/>
    <rect x="792.545" y="817" width="98.0679" height="82" fill="url(#paint6_linear_108_1327)"/>
    <rect x="584.401" y="475" width="518.359" height="355" rx="9.37" fill="#505F98"/>
    <path opacity="0.65" d="M1085.75 504.438V798.562C1085.77 803.443 1083.84 808.129 1080.4 811.588C1076.96 815.047 1072.29 816.994 1067.41 817H615.748C610.873 816.989 606.203 815.04 602.764 811.582C599.325 808.125 597.399 803.441 597.41 798.562V504.438C597.399 499.559 599.325 494.875 602.764 491.418C606.203 487.96 610.873 486.011 615.748 486H1067.41C1072.29 486.006 1076.96 487.953 1080.4 491.412C1083.84 494.871 1085.77 499.557 1085.75 504.438Z" fill="url(#paint7_linear_108_1327)"/>
    <rect x="747.514" y="889" width="206.143" height="21" fill="#505F98"/>
    <rect x="792.545" y="877" width="98.0679" height="12" fill="url(#paint8_linear_108_1327)"/>
    <path fill-rule="evenodd" clip-rule="evenodd" d="M947.653 303.241V323.715L934.944 323.819C933.707 333.346 930.084 342.41 924.405 350.181L935.26 361.351L920.38 375.6L909.694 364.578C903.105 369.062 895.67 372.17 887.838 373.714V387H867.267V374.029C858.483 372.76 850.11 369.497 842.797 364.494L833.861 373.316L819.297 358.647L828.17 349.993C822.584 342.219 819.021 333.191 817.801 323.715H803.553V303.241H818.307C820.136 295.093 823.732 287.441 828.845 280.819L820.604 272.332L835.484 258.082L843.914 266.82C850.885 262.214 858.809 259.228 867.099 258.082V244H887.669V258.396C896.038 260.055 903.947 263.493 910.853 268.476L921.391 258.166L935.871 272.709L925.333 283.187C929.464 289.267 932.397 296.073 933.974 303.241H947.653ZM841.512 316.15C841.488 335.211 857.011 350.682 876.182 350.705C885.394 350.733 894.238 347.113 900.759 340.644C907.281 334.176 910.943 325.392 910.938 316.233C910.961 297.172 895.438 281.701 876.267 281.678C857.095 281.655 841.535 297.088 841.512 316.15Z" fill="#505F98"/>
    <path fill-rule="evenodd" clip-rule="evenodd" d="M1023.71 337.354L1022.79 349.396L1015.27 348.938C1014.15 354.475 1011.64 359.641 1007.99 363.958L1013.86 371.021L1004.51 378.729L998.747 371.792C994.693 374.13 990.206 375.625 985.558 376.188L984.953 384L972.912 383.104L973.496 375.479C968.411 374.344 963.656 372.056 959.598 368.792L953.964 373.583L946.096 364.396L951.668 359.688C948.74 354.876 947.055 349.414 946.764 343.792L938.646 343.167L939.544 331.146L948.162 331.792C949.586 327.085 952.014 322.743 955.278 319.062L950.834 313.708L960.182 306L964.711 311.5C968.982 309.095 973.738 307.672 978.63 307.333L979.256 299L991.297 299.896L990.65 308.375C995.457 309.714 999.915 312.081 1003.71 315.312L1010.33 309.708L1018.18 318.896L1011.5 324.583C1013.66 328.339 1015.08 332.477 1015.67 336.771L1023.71 337.354ZM961.008 340.243C960.153 351.436 968.546 361.203 979.757 362.062C985.151 362.487 990.492 360.747 994.597 357.228C998.703 353.708 1001.23 348.7 1001.63 343.312C1002.47 332.119 994.066 322.361 982.854 321.514C971.642 320.666 961.863 329.05 961.008 340.243Z" fill="#505F98"/>
    <path d="M1085.75 504.513V511H597.41V504.513C597.399 499.614 599.325 494.912 602.764 491.44C606.203 487.968 610.874 486.011 615.749 486H1067.41C1072.29 486.006 1076.96 487.961 1080.4 491.434C1083.84 494.907 1085.77 499.613 1085.75 504.513Z" fill="url(#paint9_linear_108_1327)"/>
    <rect x="607.417" y="543" width="47.0326" height="227" fill="url(#paint10_linear_108_1327)"/>
    <rect x="725.499" y="559" width="221.153" height="209" fill="url(#paint11_linear_108_1327)"/>
    <rect x="776.534" y="657" width="7.00485" height="9" fill="url(#paint12_linear_108_1327)"/>
    <rect x="776.534" y="615" width="7.00485" height="9" fill="url(#paint13_linear_108_1327)"/>
    <rect x="681.469" y="657" width="7.00485" height="9" fill="url(#paint14_linear_108_1327)"/>
    <rect x="681.469" y="615" width="7.00485" height="9" fill="url(#paint15_linear_108_1327)"/>
    <rect x="776.534" y="570" width="7.00485" height="9" fill="url(#paint16_linear_108_1327)"/>
    <rect x="682.469" y="570" width="7.00485" height="9" fill="url(#paint17_linear_108_1327)"/>
    <rect x="730.502" y="570" width="7.00485" height="9" fill="url(#paint18_linear_108_1327)"/>
    <rect x="730.502" y="657" width="7.00485" height="9" fill="url(#paint19_linear_108_1327)"/>
    <path fill-rule="evenodd" clip-rule="evenodd" d="M694.478 655H772.532V582H694.478V655ZM764.67 647.282H702.34V589.656H764.67V647.282Z" fill="#505F98"/>
    <path fill-rule="evenodd" clip-rule="evenodd" d="M694.478 655H772.532V582H694.478V655ZM764.67 647.282H702.34V589.656H764.67V647.282Z" fill="url(#paint20_linear_108_1327)"/>
    <rect x="978.674" y="523" width="100.069" height="100" fill="url(#paint21_linear_108_1327)"/>
    <rect x="978.674" y="633" width="100.069" height="100" fill="url(#paint22_linear_108_1327)"/>
    <rect opacity="0.65" x="607.417" y="542" width="47.0326" height="13" fill="url(#paint23_linear_108_1327)"/>
    <path d="M404.381 473.827L609.51 309.293L657.622 369.118L452.494 533.652L404.381 473.827Z" fill="white"/>
    <path d="M433.105 478.455L458.172 458.235L490.755 498.522L465.687 518.742L433.105 478.455Z" fill="#505F98"/>
    <path d="M433.105 478.455L458.172 458.235L490.755 498.522L465.687 518.742L433.105 478.455Z" fill="url(#paint24_linear_108_1327)"/>
    <path d="M456.723 458.689L481.755 438.56L514.19 478.79L489.158 498.919L456.723 458.689Z" fill="#505F98"/>
    <path d="M456.723 458.689L481.755 438.56L514.19 478.79L489.158 498.919L456.723 458.689Z" fill="url(#paint25_linear_108_1327)"/>
    <path d="M481.667 438.761L506.699 418.633L539.134 458.863L514.101 478.991L481.667 438.761Z" fill="#505F98"/>
    <path d="M481.667 438.761L506.699 418.633L539.134 458.863L514.101 478.991L481.667 438.761Z" fill="url(#paint26_linear_108_1327)"/>
    <path d="M506.594 418.847L531.626 398.718L564.061 438.948L539.029 459.077L506.594 418.847Z" fill="#505F98"/>
    <path d="M506.594 418.847L531.626 398.718L564.061 438.948L539.029 459.077L506.594 418.847Z" fill="url(#paint27_linear_108_1327)"/>
    <path d="M532.714 398.389L557.782 378.169L590.364 418.456L565.297 438.676L532.714 398.389Z" fill="#505F98"/>
    <path d="M557.794 377.99L582.862 357.77L615.444 398.057L590.377 418.277L557.794 377.99Z" fill="#505F98"/>
    <path d="M581.402 359.051L606.434 338.923L638.869 379.153L613.837 399.281L581.402 359.051Z" fill="#505F98"/>
    <path d="M611.42 402.218L590.321 419L558.383 378.782L579.482 362L611.42 402.218Z" fill="url(#paint28_linear_108_1327)"/>
    <path d="M578.445 361.648L603.477 341.519L635.912 381.749L610.879 401.878L578.445 361.648Z" fill="url(#paint29_linear_108_1327)"/>
    <path d="M527.362 483.15V606H506.347V483.15C506.347 478.61 509.166 474.57 513.366 473.089V460.825C513.366 458.712 515.041 457 517.109 457C519.176 457 520.852 458.712 520.852 460.825V473.297C524.771 474.935 527.34 478.823 527.362 483.15Z" fill="#505F98"/>
    <path d="M527.362 483.15V606H506.347V483.15C506.347 478.61 509.166 474.57 513.366 473.089V460.825C513.366 458.712 515.041 457 517.109 457C519.176 457 520.852 458.712 520.852 460.825V473.297C524.771 474.935 527.34 478.823 527.362 483.15Z" fill="url(#paint30_linear_108_1327)"/>
    <rect x="493.338" y="561" width="50.0346" height="9" rx="2.245" fill="#505F98"/>
    <path d="M518.044 643C509.471 643 502.344 630.185 502.344 621.634V565H533.366V621.634C533.366 630.185 526.596 643 518.044 643Z" fill="#505F98"/>
    <rect x="493.338" y="561" width="50.0346" height="9" rx="2.245" fill="url(#paint31_linear_108_1327)"/>
    <path d="M518.044 643C509.471 643 502.344 630.366 502.344 621.937V570H533.366V621.937C533.366 630.366 526.596 643 518.044 643Z" fill="url(#paint32_linear_108_1327)"/>
    <path d="M718.136 703C717.463 699.436 717.037 694.39 718.331 694.043C721.059 693.275 718.136 703 718.136 703Z" fill="#28353D"/>
    <path d="M861.395 898.507C860.909 911.102 851.147 957.388 850.83 970.004C850.83 974.202 851.95 980.647 850.597 984.698C847.808 993.284 837.919 992.108 836.63 987.049L836.144 984.53C831.559 960.012 838.933 932.198 836.144 900.186C834.475 880.643 826.699 842.963 821.606 842.711C818.923 842.711 757.665 971.851 752.34 979.807C749.72 983.817 742.345 983.187 738.774 986.42C735.203 989.652 768.526 888.515 782.493 835.07C785.751 824.039 787.875 812.709 788.833 801.252C789.213 794.64 787.079 792.415 793.185 790.463C797.412 789.119 803.265 789.497 807.787 789.182C812.71 788.804 858.5 788.72 858.5 791.953C858.057 809.502 862.578 869.412 861.395 898.507Z" fill="#606161"/>
    <path d="M861.395 898.507C860.909 911.102 851.147 957.388 850.83 970.004C850.83 974.202 851.95 980.647 850.597 984.698C847.808 993.284 837.919 992.108 836.63 987.049L836.144 984.53C831.559 960.012 838.933 932.198 836.144 900.186C834.475 880.643 826.699 842.963 821.606 842.711C818.923 842.711 757.665 971.851 752.34 979.807C749.72 983.817 742.345 983.187 738.774 986.42C735.203 989.652 768.526 888.515 782.493 835.07C785.751 824.039 787.875 812.709 788.833 801.252C789.213 794.64 787.079 792.415 793.185 790.463C797.412 789.119 803.265 789.497 807.787 789.182C812.71 788.804 858.5 788.72 858.5 791.953C858.057 809.502 862.578 869.412 861.395 898.507Z" fill="url(#paint33_linear_108_1327)"/>
    <path d="M807.322 630.148C806.937 626.163 805.054 624 803.215 624C801.375 624 800.241 626.12 800.626 630.148C800.713 633.122 802.957 635.597 805.932 636C807.793 636 807.729 634.134 807.322 630.148Z" fill="#FFCD9C"/>
    <path d="M839.716 630.159C839.966 626.166 841.803 624 843.702 624C845.601 624 846.832 626.124 846.54 630.159C846.514 633.173 844.268 635.687 841.323 636C839.445 636 839.424 634.152 839.716 630.159Z" fill="#FFCD9C"/>
    <path d="M843.44 647.672C843.181 649.777 834.266 659 824.121 659C813.976 659 805.6 650.577 803.83 647.208C802.06 643.839 809.184 600.505 813.306 596.884C817.429 593.262 834.137 595.641 835.54 597.558C838.907 602.085 844.541 639.27 843.44 647.672Z" fill="#F4AD7D"/>
    <path d="M839.246 614.977C837.867 615.639 832.452 601.842 831.316 599.525C830.18 597.208 830.362 594.829 831.742 594.167C833.121 593.505 835.149 594.871 836.285 597.167C837.421 599.463 840.605 614.336 839.246 614.977Z" fill="#FFCD9C"/>
    <path d="M808.876 613.987C807.446 613.501 811.233 599.179 812.059 596.703C812.885 594.228 814.739 592.599 816.089 593.086C817.439 593.573 818.003 595.984 817.177 598.481C816.351 600.977 810.226 614.474 808.876 613.987Z" fill="#FFCD9C"/>
    <path d="M814.553 646H836.317L839.578 666.622C827.722 673.005 820.81 672.301 811.559 665.214L814.553 646Z" fill="#F4AD7D"/>
    <path d="M823.567 650.13C823.567 649.75 824.472 649.43 825.568 649.43C826.664 649.43 827.57 649.75 827.57 650.13C827.57 650.51 826.688 650.57 825.568 650.57C824.448 650.57 823.567 650.53 823.567 650.13Z" fill="#F4AD7D"/>
    <path d="M844.6 640.808C845.424 635.894 846.768 600.708 843.473 596.051C840.177 591.394 820.449 588.381 817.457 589.108C810.758 590.731 811.929 595.517 811.929 595.517C809.938 595.547 807.989 596.084 806.271 597.076C803.973 598.615 799.138 620.79 802.997 637.56C804.732 645.102 811.561 651.66 823.354 651.981C837.879 652.365 843.603 646.896 844.6 640.808Z" fill="#606161"/>
    <path d="M817.539 590.762C819.098 589.448 821.118 588.828 823.138 589.041C829.271 589.008 835.355 590.14 841.073 592.376C844.243 593.488 847.122 595.311 849.493 597.708C851.88 600.173 852.979 603.627 852.461 607.034C851.408 612.047 846.146 615.148 844.42 619.97C843.031 623.837 844.02 627.575 844.062 631.463C844.09 634.606 843.865 637.746 843.388 640.852C842.42 646.906 836.884 652.344 822.675 651.983C811.224 651.664 804.593 645.143 802.909 637.644C800.629 625.198 801.227 612.389 804.656 600.215C810.828 601.648 817.142 602.361 823.475 602.339C830.19 602.395 836.886 601.611 843.409 600.002C844.525 606.503 844.504 619.524 844.146 629.253" fill="#606161"/>
    <path d="M782.41 662.954C778.976 663.241 775.668 664.384 772.785 666.28C767.847 670.171 767.472 677.43 767.556 683.748C767.387 692.501 767.993 701.252 769.368 709.897C770.848 717.826 773.535 725.441 775.743 733.202C779.224 745.831 781.052 758.862 781.181 771.966C781.181 779.162 781.056 787.07 785.535 792.697C790.431 798.806 799.098 799.998 806.89 800.438C817.953 801.086 829.057 801.17 840.12 800.709C847.537 800.375 855.433 799.643 861.308 795.082C865.996 791.442 876.975 668.288 868.454 665.171C859.933 662.054 850.766 661.259 841.724 660.506C821.453 658.791 802.369 657.431 782.41 662.954Z" fill="#505F98"/>
    <path d="M846.23 918.291C845.143 932.255 842.551 983 842.551 983L835.946 982.77C831.41 958.39 838.705 930.732 835.946 898.899C834.295 879.465 826.603 841.996 821.565 841.746C823.07 829.221 831.536 831.1 831.536 831.1C837.692 840.294 843.002 850.026 847.4 860.178C852.438 873.37 847.337 904.263 846.23 918.291Z" fill="url(#paint34_linear_108_1327)"/>
    <path d="M721.873 984.024C720.841 984.786 720.058 985.83 719.621 987.025C719.386 988.009 719.481 989.04 719.892 989.965C721.058 992.326 723.269 994.019 725.876 994.55C728.453 995.04 731.091 995.131 733.696 994.818L742.036 994.262C744.158 994.212 746.264 993.873 748.292 993.255C750.322 992.627 751.998 991.198 752.921 989.308C753.412 987.916 753.604 986.438 753.484 984.969C753.484 978.164 751.065 972.634 743.517 974.299C735.61 975.765 728.183 979.102 721.873 984.024Z" fill="#505F98"/>
    <path d="M860.411 987.063C861.359 987.759 862.077 988.709 862.478 989.797C862.692 990.682 862.608 991.611 862.239 992.446C861.176 994.584 859.146 996.114 856.755 996.579C854.398 997.035 851.981 997.121 849.596 996.834L842.024 996.325C840.098 996.284 838.187 995.985 836.345 995.435C834.488 994.864 832.958 993.566 832.123 991.853C831.675 990.595 831.498 989.26 831.601 987.932C831.601 981.785 833.777 976.72 840.718 978.288C847.915 979.619 854.672 982.63 860.411 987.063Z" fill="#505F98"/>
    <path d="M869.599 665C869.599 665 902.314 684.163 912.14 708.389C921.965 732.614 879.961 791 879.961 791L870.972 781.814C870.972 781.814 892.897 737.759 889.507 726.74C886.117 715.721 872.838 705.452 872.838 705.452L869.599 665Z" fill="#505F98"/>
    <path d="M776.534 702.859C776.534 702.859 731.046 723.24 712.561 713.238C694.076 703.237 713.106 653 713.106 653L725.486 657.202C725.486 657.202 715.142 682.815 726.975 686.618C738.809 690.421 774.268 665.438 774.268 665.438L776.534 702.859Z" fill="#505F98"/>
    <path d="M862.175 789.976C860.866 790.826 859.806 791.968 859.09 793.297C858.66 794.425 858.505 795.629 858.637 796.819C858.557 799.709 859.872 802.479 862.218 804.367C863.866 805.25 865.713 805.76 867.611 805.857C868.774 806.048 869.964 806.048 871.128 805.857C872.314 805.646 873.305 804.888 873.759 803.844C873.914 803.183 873.98 802.507 873.954 801.831C874.105 798.51 876.607 795.793 878.678 793.076C879.178 792.551 879.501 791.9 879.606 791.204C879.594 790.434 879.305 789.69 878.786 789.091C877.384 787.199 873.91 783.717 871.128 784.018C868.345 784.32 864.332 788.326 862.175 789.976Z" fill="#F4AD7D"/>
    <path d="M733.294 645.435C733.886 644.611 734.29 643.679 734.48 642.698C734.631 641.683 734.094 640.687 733.14 640.211C731.624 639.647 729.822 641.13 728.328 640.504C727.822 640.235 727.399 639.846 727.098 639.375C725.333 636.945 724.321 634.093 724.175 631.143C724.261 629.571 724.113 627.995 723.736 626.463C723.292 624.886 721.708 623.849 720.001 624.018C718.595 624.331 717.804 625.689 716.925 626.776C716.046 627.863 714.288 629.158 713.146 630.516C711.195 633.307 710.079 636.55 709.916 639.898C709.301 644.077 708.905 648.861 711.981 651.87C714.354 654.189 721.583 656.927 724.9 655.694C728.57 654.315 731.448 648.444 733.294 645.435Z" fill="#F4AD7D"/>
    <defs>
        <filter id="filter0_d_108_1327" x="0.499146" y="-50.5" width="1499.03" height="1170" filterUnits="userSpaceOnUse" color-interpolation-filters="sRGB">
            <feFlood flood-opacity="0" result="BackgroundImageFix"/>
            <feColorMatrix in="SourceAlpha" type="matrix" values="0 0 0 0 0 0 0 0 0 0 0 0 0 0 0 0 0 0 127 0" result="hardAlpha"/>
            <feOffset dy="4"/>
            <feGaussianBlur stdDeviation="2"/>
            <feComposite in2="hardAlpha" operator="out"/>
            <feColorMatrix type="matrix" values="0 0 0 0 0 0 0 0 0 0 0 0 0 0 0 0 0 0 0.25 0"/>
            <feBlend mode="normal" in2="BackgroundImageFix" result="effect1_dropShadow_108_1327"/>
            <feBlend mode="normal" in="SourceGraphic" in2="effect1_dropShadow_108_1327" result="shape"/>
        </filter>
        <linearGradient id="paint0_linear_108_1327" x1="533.11" y1="559.166" x2="597.864" y2="430.6" gradientUnits="userSpaceOnUse">
            <stop stop-color="#010101" stop-opacity="0.01"/>
            <stop offset="0.95" stop-color="#010101"/>
        </linearGradient>
        <linearGradient id="paint1_linear_108_1327" x1="588.271" y1="555.365" x2="681.125" y2="373.775" gradientUnits="userSpaceOnUse">
            <stop stop-color="#010101" stop-opacity="0.01"/>
            <stop offset="0.95" stop-color="#010101"/>
        </linearGradient>
        <linearGradient id="paint2_linear_108_1327" x1="708.253" y1="564.092" x2="845.607" y2="253.948" gradientUnits="userSpaceOnUse">
            <stop stop-color="#010101" stop-opacity="0.01"/>
            <stop offset="0.95" stop-color="#010101"/>
        </linearGradient>
        <linearGradient id="paint3_linear_108_1327" x1="836.087" y1="580.583" x2="1041.02" y2="133.179" gradientUnits="userSpaceOnUse">
            <stop stop-color="#010101" stop-opacity="0.01"/>
            <stop offset="0.36" stop-color="#010101" stop-opacity="0.36"/>
            <stop offset="0.95" stop-color="#010101"/>
        </linearGradient>
        <linearGradient id="paint4_linear_108_1327" x1="687.434" y1="475.564" x2="804.594" y2="233.969" gradientUnits="userSpaceOnUse">
            <stop stop-color="white" stop-opacity="0.01"/>
            <stop offset="0.07" stop-color="white" stop-opacity="0.22"/>
            <stop offset="0.16" stop-color="white" stop-opacity="0.45"/>
            <stop offset="0.25" stop-color="white" stop-opacity="0.65"/>
            <stop offset="0.33" stop-color="white" stop-opacity="0.8"/>
            <stop offset="0.4" stop-color="white" stop-opacity="0.91"/>
            <stop offset="0.46" stop-color="white" stop-opacity="0.98"/>
            <stop offset="0.51" stop-color="white"/>
        </linearGradient>
        <linearGradient id="paint5_linear_108_1327" x1="609.358" y1="422.444" x2="673.555" y2="286.555" gradientUnits="userSpaceOnUse">
            <stop stop-color="white" stop-opacity="0.01"/>
            <stop offset="0.07" stop-color="white" stop-opacity="0.22"/>
            <stop offset="0.16" stop-color="white" stop-opacity="0.45"/>
            <stop offset="0.25" stop-color="white" stop-opacity="0.65"/>
            <stop offset="0.33" stop-color="white" stop-opacity="0.8"/>
            <stop offset="0.4" stop-color="white" stop-opacity="0.91"/>
            <stop offset="0.46" stop-color="white" stop-opacity="0.98"/>
            <stop offset="0.51" stop-color="white"/>
        </linearGradient>
        <linearGradient id="paint6_linear_108_1327" x1="914.68" y1="885.322" x2="925.101" y2="758.584" gradientUnits="userSpaceOnUse">
            <stop stop-color="#010101" stop-opacity="0.01"/>
            <stop offset="0.95" stop-color="#010101"/>
        </linearGradient>
        <linearGradient id="paint7_linear_108_1327" x1="512.967" y1="422.517" x2="510.252" y2="872.071" gradientUnits="userSpaceOnUse">
            <stop stop-color="white" stop-opacity="0.01"/>
            <stop offset="0.07" stop-color="white" stop-opacity="0.22"/>
            <stop offset="0.16" stop-color="white" stop-opacity="0.45"/>
            <stop offset="0.25" stop-color="white" stop-opacity="0.65"/>
            <stop offset="0.33" stop-color="white" stop-opacity="0.8"/>
            <stop offset="0.4" stop-color="white" stop-opacity="0.91"/>
            <stop offset="0.46" stop-color="white" stop-opacity="0.98"/>
            <stop offset="0.51" stop-color="white"/>
        </linearGradient>
        <linearGradient id="paint8_linear_108_1327" x1="259.313" y1="860.073" x2="259.413" y2="1002.31" gradientUnits="userSpaceOnUse">
            <stop stop-color="#010101" stop-opacity="0.01"/>
            <stop offset="0.95" stop-color="#010101"/>
        </linearGradient>
        <linearGradient id="paint9_linear_108_1327" x1="1411.73" y1="605.966" x2="1445.91" y2="198.855" gradientUnits="userSpaceOnUse">
            <stop stop-color="white" stop-opacity="0.01"/>
            <stop offset="0.07" stop-color="white" stop-opacity="0.22"/>
            <stop offset="0.16" stop-color="white" stop-opacity="0.45"/>
            <stop offset="0.25" stop-color="white" stop-opacity="0.65"/>
            <stop offset="0.33" stop-color="white" stop-opacity="0.8"/>
            <stop offset="0.4" stop-color="white" stop-opacity="0.91"/>
            <stop offset="0.46" stop-color="white" stop-opacity="0.98"/>
            <stop offset="0.51" stop-color="white"/>
        </linearGradient>
        <linearGradient id="paint10_linear_108_1327" x1="584.846" y1="495.87" x2="722.853" y2="864.142" gradientUnits="userSpaceOnUse">
            <stop stop-color="white" stop-opacity="0.01"/>
            <stop offset="0.07" stop-color="white" stop-opacity="0.22"/>
            <stop offset="0.16" stop-color="white" stop-opacity="0.45"/>
            <stop offset="0.25" stop-color="white" stop-opacity="0.65"/>
            <stop offset="0.33" stop-color="white" stop-opacity="0.8"/>
            <stop offset="0.4" stop-color="white" stop-opacity="0.91"/>
            <stop offset="0.46" stop-color="white" stop-opacity="0.98"/>
            <stop offset="0.51" stop-color="white"/>
        </linearGradient>
        <linearGradient id="paint11_linear_108_1327" x1="688.377" y1="518.99" x2="685.051" y2="801.698" gradientUnits="userSpaceOnUse">
            <stop stop-color="white" stop-opacity="0.01"/>
            <stop offset="0.07" stop-color="white" stop-opacity="0.22"/>
            <stop offset="0.16" stop-color="white" stop-opacity="0.45"/>
            <stop offset="0.25" stop-color="white" stop-opacity="0.65"/>
            <stop offset="0.33" stop-color="white" stop-opacity="0.8"/>
            <stop offset="0.4" stop-color="white" stop-opacity="0.91"/>
            <stop offset="0.46" stop-color="white" stop-opacity="0.98"/>
            <stop offset="0.51" stop-color="white"/>
        </linearGradient>
        <linearGradient id="paint12_linear_108_1327" x1="1004.21" y1="710.704" x2="1023.4" y2="132.785" gradientUnits="userSpaceOnUse">
            <stop stop-color="#010101" stop-opacity="0.01"/>
            <stop offset="0.95" stop-color="#010101"/>
        </linearGradient>
        <linearGradient id="paint13_linear_108_1327" x1="1003.36" y1="711.045" x2="1022.55" y2="133.125" gradientUnits="userSpaceOnUse">
            <stop stop-color="#010101" stop-opacity="0.01"/>
            <stop offset="0.95" stop-color="#010101"/>
        </linearGradient>
        <linearGradient id="paint14_linear_108_1327" x1="909.18" y1="708.354" x2="928.396" y2="130.435" gradientUnits="userSpaceOnUse">
            <stop stop-color="#010101" stop-opacity="0.01"/>
            <stop offset="0.95" stop-color="#010101"/>
        </linearGradient>
        <linearGradient id="paint15_linear_108_1327" x1="908.328" y1="708.694" x2="927.544" y2="130.776" gradientUnits="userSpaceOnUse">
            <stop stop-color="#010101" stop-opacity="0.01"/>
            <stop offset="0.95" stop-color="#010101"/>
        </linearGradient>
        <linearGradient id="paint16_linear_108_1327" x1="1002.42" y1="712.545" x2="1021.64" y2="134.627" gradientUnits="userSpaceOnUse">
            <stop stop-color="#010101" stop-opacity="0.01"/>
            <stop offset="0.95" stop-color="#010101"/>
        </linearGradient>
        <linearGradient id="paint17_linear_108_1327" x1="908.39" y1="710.236" x2="927.578" y2="132.317" gradientUnits="userSpaceOnUse">
            <stop stop-color="#010101" stop-opacity="0.01"/>
            <stop offset="0.95" stop-color="#010101"/>
        </linearGradient>
        <linearGradient id="paint18_linear_108_1327" x1="956.38" y1="711.396" x2="975.597" y2="133.499" gradientUnits="userSpaceOnUse">
            <stop stop-color="#010101" stop-opacity="0.01"/>
            <stop offset="0.95" stop-color="#010101"/>
        </linearGradient>
        <linearGradient id="paint19_linear_108_1327" x1="958.196" y1="708.843" x2="977.413" y2="130.925" gradientUnits="userSpaceOnUse">
            <stop stop-color="#010101" stop-opacity="0.01"/>
            <stop offset="0.95" stop-color="#010101"/>
        </linearGradient>
        <linearGradient id="paint20_linear_108_1327" x1="613.119" y1="723.399" x2="845.351" y2="940.094" gradientUnits="userSpaceOnUse">
            <stop stop-color="white" stop-opacity="0.01"/>
            <stop offset="0.07" stop-color="white" stop-opacity="0.22"/>
            <stop offset="0.16" stop-color="white" stop-opacity="0.45"/>
            <stop offset="0.25" stop-color="white" stop-opacity="0.65"/>
            <stop offset="0.33" stop-color="white" stop-opacity="0.8"/>
            <stop offset="0.4" stop-color="white" stop-opacity="0.91"/>
            <stop offset="0.46" stop-color="white" stop-opacity="0.98"/>
            <stop offset="0.51" stop-color="white"/>
        </linearGradient>
        <linearGradient id="paint21_linear_108_1327" x1="961.986" y1="503.864" x2="960.2" y2="639.026" gradientUnits="userSpaceOnUse">
            <stop stop-color="white" stop-opacity="0.01"/>
            <stop offset="0.07" stop-color="white" stop-opacity="0.22"/>
            <stop offset="0.16" stop-color="white" stop-opacity="0.45"/>
            <stop offset="0.25" stop-color="white" stop-opacity="0.65"/>
            <stop offset="0.33" stop-color="white" stop-opacity="0.8"/>
            <stop offset="0.4" stop-color="white" stop-opacity="0.91"/>
            <stop offset="0.46" stop-color="white" stop-opacity="0.98"/>
            <stop offset="0.51" stop-color="white"/>
        </linearGradient>
        <linearGradient id="paint22_linear_108_1327" x1="961.986" y1="613.864" x2="960.2" y2="749.026" gradientUnits="userSpaceOnUse">
            <stop stop-color="white" stop-opacity="0.01"/>
            <stop offset="0.07" stop-color="white" stop-opacity="0.22"/>
            <stop offset="0.16" stop-color="white" stop-opacity="0.45"/>
            <stop offset="0.25" stop-color="white" stop-opacity="0.65"/>
            <stop offset="0.33" stop-color="white" stop-opacity="0.8"/>
            <stop offset="0.4" stop-color="white" stop-opacity="0.91"/>
            <stop offset="0.46" stop-color="white" stop-opacity="0.98"/>
            <stop offset="0.51" stop-color="white"/>
        </linearGradient>
        <linearGradient id="paint23_linear_108_1327" x1="598.145" y1="539.281" x2="598.128" y2="557.481" gradientUnits="userSpaceOnUse">
            <stop stop-color="white" stop-opacity="0.01"/>
            <stop offset="0.07" stop-color="white" stop-opacity="0.22"/>
            <stop offset="0.16" stop-color="white" stop-opacity="0.45"/>
            <stop offset="0.25" stop-color="white" stop-opacity="0.65"/>
            <stop offset="0.33" stop-color="white" stop-opacity="0.8"/>
            <stop offset="0.4" stop-color="white" stop-opacity="0.91"/>
            <stop offset="0.46" stop-color="white" stop-opacity="0.98"/>
            <stop offset="0.51" stop-color="white"/>
        </linearGradient>
        <linearGradient id="paint24_linear_108_1327" x1="517.445" y1="592.052" x2="630.876" y2="502.635" gradientUnits="userSpaceOnUse">
            <stop stop-color="#010101" stop-opacity="0.01"/>
            <stop offset="0.95" stop-color="#010101"/>
        </linearGradient>
        <linearGradient id="paint25_linear_108_1327" x1="567.284" y1="611.988" x2="728.56" y2="486.867" gradientUnits="userSpaceOnUse">
            <stop stop-color="#010101" stop-opacity="0.01"/>
            <stop offset="0.95" stop-color="#010101"/>
        </linearGradient>
        <linearGradient id="paint26_linear_108_1327" x1="672.228" y1="670.751" x2="928.392" y2="448.028" gradientUnits="userSpaceOnUse">
            <stop stop-color="#010101" stop-opacity="0.01"/>
            <stop offset="0.95" stop-color="#010101"/>
        </linearGradient>
        <linearGradient id="paint27_linear_108_1327" x1="780.987" y1="739.865" x2="1156.67" y2="421.45" gradientUnits="userSpaceOnUse">
            <stop stop-color="#010101" stop-opacity="0.01"/>
            <stop offset="0.36" stop-color="#010101" stop-opacity="0.36"/>
            <stop offset="0.95" stop-color="#010101"/>
        </linearGradient>
        <linearGradient id="paint28_linear_108_1327" x1="629.246" y1="502.751" x2="812.185" y2="371.322" gradientUnits="userSpaceOnUse">
            <stop stop-color="white" stop-opacity="0.01"/>
            <stop offset="0.07" stop-color="white" stop-opacity="0.22"/>
            <stop offset="0.16" stop-color="white" stop-opacity="0.45"/>
            <stop offset="0.25" stop-color="white" stop-opacity="0.65"/>
            <stop offset="0.33" stop-color="white" stop-opacity="0.8"/>
            <stop offset="0.4" stop-color="white" stop-opacity="0.91"/>
            <stop offset="0.46" stop-color="white" stop-opacity="0.98"/>
            <stop offset="0.51" stop-color="white"/>
        </linearGradient>
        <linearGradient id="paint29_linear_108_1327" x1="642.859" y1="500.517" x2="758.717" y2="404.658" gradientUnits="userSpaceOnUse">
            <stop stop-color="white" stop-opacity="0.01"/>
            <stop offset="0.07" stop-color="white" stop-opacity="0.22"/>
            <stop offset="0.16" stop-color="white" stop-opacity="0.45"/>
            <stop offset="0.25" stop-color="white" stop-opacity="0.65"/>
            <stop offset="0.33" stop-color="white" stop-opacity="0.8"/>
            <stop offset="0.4" stop-color="white" stop-opacity="0.91"/>
            <stop offset="0.46" stop-color="white" stop-opacity="0.98"/>
            <stop offset="0.51" stop-color="white"/>
        </linearGradient>
        <linearGradient id="paint30_linear_108_1327" x1="508.446" y1="666.745" x2="546.631" y2="666.767" gradientUnits="userSpaceOnUse">
            <stop stop-color="white" stop-opacity="0.01"/>
            <stop offset="0.07" stop-color="white" stop-opacity="0.22"/>
            <stop offset="0.16" stop-color="white" stop-opacity="0.45"/>
            <stop offset="0.25" stop-color="white" stop-opacity="0.65"/>
            <stop offset="0.33" stop-color="white" stop-opacity="0.8"/>
            <stop offset="0.4" stop-color="white" stop-opacity="0.91"/>
            <stop offset="0.46" stop-color="white" stop-opacity="0.98"/>
            <stop offset="0.51" stop-color="white"/>
        </linearGradient>
        <linearGradient id="paint31_linear_108_1327" x1="435.154" y1="569.2" x2="446.805" y2="607.932" gradientUnits="userSpaceOnUse">
            <stop stop-color="#010101" stop-opacity="0.01"/>
            <stop offset="0.95" stop-color="#010101"/>
        </linearGradient>
        <linearGradient id="paint32_linear_108_1327" x1="459.952" y1="717.933" x2="560.855" y2="719.976" gradientUnits="userSpaceOnUse">
            <stop stop-color="#010101" stop-opacity="0.01"/>
            <stop offset="0.95" stop-color="#010101"/>
        </linearGradient>
        <linearGradient id="paint33_linear_108_1327" x1="862.723" y1="875.512" x2="766.63" y2="710.732" gradientUnits="userSpaceOnUse">
            <stop stop-color="#010101" stop-opacity="0.01"/>
            <stop offset="0.95" stop-color="#010101"/>
        </linearGradient>
        <linearGradient id="paint34_linear_108_1327" x1="863.746" y1="413.892" x2="690.86" y2="418.761" gradientUnits="userSpaceOnUse">
            <stop stop-color="#010101" stop-opacity="0.01"/>
            <stop offset="0.95" stop-color="#010101"/>
        </linearGradient>
    </defs>
</svg>
